<?xml version="1.0" ?><svg viewBox="0 0 64 64" xmlns="http://www.w3.org/2000/svg"><defs><style>.cls-1{fill:#5f443e;}.cls-2{fill:#7f5b53;}.cls-3{fill:#71c285;}.cls-4{fill:#98856e;}.cls-5{fill:#cbb292;}.cls-6{fill:#4482c3;}.cls-7{fill:#ccc;}.cls-8{fill:#f2f2f2;}.cls-9{fill:none;stroke:#000;stroke-linejoin:round;stroke-width:2px;}</style></defs><title/><g data-name="Layer 22" id="Layer_22"><rect class="cls-1" height="4" width="60" x="2" y="58"/><rect class="cls-2" height="4" width="57" x="2" y="58"/><rect class="cls-1" height="14" width="8" x="28" y="44"/><rect class="cls-2" height="14" width="5" x="28" y="44"/><path class="cls-3" d="M49.9,58A5,5,0,0,0,45,54a4.93,4.93,0,0,0-1.09.13,5,5,0,0,0-9.82,0A4.93,4.93,0,0,0,33,54a5.47,5.47,0,0,0-1,.1,5.47,5.47,0,0,0-1-.1,4.93,4.93,0,0,0-1.09.13,5,5,0,0,0-9.82,0A4.93,4.93,0,0,0,19,54a5,5,0,0,0-4.9,4"/><rect class="cls-4" height="18" width="4" x="30" y="26"/><rect class="cls-5" height="18" width="2" x="30" y="26"/><rect class="cls-6" height="24" rx="2" ry="2" width="22" x="21" y="2"/><rect class="cls-7" height="16" width="14" x="25" y="6"/><rect class="cls-8" height="16" width="11" x="25" y="6"/><rect class="cls-9" height="4" width="60" x="2" y="58"/><polyline class="cls-9" points="28 51 28 44 36 44 36 51.01"/><line class="cls-9" x1="30" x2="30" y1="44" y2="26"/><line class="cls-9" x1="34" x2="34" y1="44" y2="26"/><path class="cls-9" d="M49.9,58A5,5,0,0,0,45,54a4.93,4.93,0,0,0-1.09.13,5,5,0,0,0-9.82,0A4.93,4.93,0,0,0,33,54a5.47,5.47,0,0,0-1,.1,5.47,5.47,0,0,0-1-.1,4.93,4.93,0,0,0-1.09.13,5,5,0,0,0-9.82,0A4.93,4.93,0,0,0,19,54a5,5,0,0,0-4.9,4"/><rect class="cls-9" height="24" rx="2" ry="2" width="22" x="21" y="2"/><rect class="cls-9" height="16" width="14" x="25" y="6"/><path class="cls-9" d="M29,10h4a2,2,0,0,1,2,2v0a2,2,0,0,1-2,2H29a0,0,0,0,1,0,0V10A0,0,0,0,1,29,10Z"/><line class="cls-9" x1="29" x2="29" y1="14" y2="19"/></g></svg>